<svg width="259" height="369" viewBox="0 0 259 369" fill="none" xmlns="http://www.w3.org/2000/svg">
<path fill-rule="evenodd" clip-rule="evenodd" d="M189.647 307.679V309.596C189.647 333.49 226.07 331.995 226.07 340.907V342.185C226.07 344.219 222.814 346.658 220.319 346.658C206.987 346.658 195.803 341.652 190.286 338.597V354.964C190.286 358.175 209.876 361.993 214.568 361.993H217.124C235.744 362.436 252.146 356.617 252.146 341.76V338.99C252.146 318.179 215.294 318.394 215.294 309.707C215.294 306.663 217.874 304.817 220.958 304.484C233.329 304.263 241.24 308.17 248.939 312.244V295.631C242.465 293.846 235.178 290.426 222.236 290.426H217.763C205.059 290.426 189.647 296.407 189.647 307.679V307.679ZM6.1006 67.2775H251.474V281.503H6.1006V67.2775ZM251.466 61.376H6.0929V6.89551H251.466V61.376ZM6.2561 361.354H31.8158V334.517H55.4586C65.8959 334.517 79.1013 325.492 79.1013 314.708V310.235C79.1013 299.137 63.899 291.065 52.2635 291.065H6.2561V361.354ZM31.8158 321.098H44.5959C48.6594 321.098 53.5515 318.715 53.4778 312.661C53.4778 306.494 49.2434 304.484 42.0397 304.484H31.8158V321.098ZM93.1591 361.354H118.719L118.969 328.522L151.307 361.354L182.084 361.252L145.331 324.077L176.867 291.065L149.254 290.932L118.719 321.737V291.065H93.1591V361.354Z" fill="#000200"/>
<path fill-rule="evenodd" clip-rule="evenodd" d="M214.078 98.411C220.85 98.411 227.36 99.458 233.435 101.388C203.595 101.981 179.585 125.37 179.585 154.128C179.585 183.258 204.22 206.882 234.596 206.882C235.344 206.882 236.087 206.863 236.827 206.835C229.808 209.519 222.128 211.001 214.078 211.001C180.844 211.001 153.893 185.792 153.893 154.706C153.893 123.62 180.844 98.411 214.078 98.411V98.411ZM238.813 47.579H233.244L228.073 35.497C227.944 35.1963 227.814 34.8824 227.685 34.5559V47.579H226.526H221.827V27.3426V20.2357H227.3L231.692 30.2526C232.179 31.3565 232.6 32.3866 232.955 33.342V20.2357H233.244H238.813V40.4721V47.579ZM46.4906 98.411C39.7192 98.411 33.2089 99.458 27.1338 101.388C56.9743 101.981 80.9839 125.37 80.9839 154.128C80.9839 183.258 56.3493 206.882 25.9725 206.882C25.225 206.882 24.4821 206.863 23.7419 206.835C30.761 209.519 38.4404 211.001 46.4906 211.001C79.7245 211.001 106.676 185.792 106.676 154.706C106.676 123.62 79.7245 98.411 46.4906 98.411V98.411ZM29.6934 256.088C30.1113 256.335 38.6394 260.728 38.6394 256.827C38.6394 255.177 37.6885 254.165 35.9005 252.935C32.363 250.501 29.8735 248.7 29.8735 245.358C29.8735 241.198 33.1124 237.969 39.7156 237.969C42.6811 237.969 44.7671 238.263 47.3119 239.439L47.3056 245.437C46.2257 244.765 39.2155 241.968 39.2155 245.589C39.2155 248.817 48.6135 249.81 48.6135 256.462C48.6135 262.284 44.9885 264.698 38.365 264.698C34.9584 264.698 32.9532 264.554 29.6972 263.632L29.6934 256.088ZM126.897 125.502C126.521 117.076 120.666 108.038 115.354 104.564C115.354 112.713 119.35 121.728 125.2 125.44L129.72 130.924V142.165L126.88 138.719C126.372 128.984 120.56 123.687 115.025 118.374C115.443 126.416 118.346 133.556 125.569 139.124L129.72 144.161V156.254L126.885 152.815C126.425 144.448 120.623 135.529 115.354 132.084C115.354 140.981 119.079 149.572 125.558 153.2L129.72 158.25V169.958L126.893 166.528C126.495 156.584 120.715 151.348 115.354 145.844C114.081 147.543 116.824 160.829 125.386 166.696L129.72 171.954V184.271L126.911 180.863C126.714 170.627 120.787 165.182 115.354 159.603C115.93 165.25 116.993 169.73 120.063 174.894C121.929 178.032 122.795 179.69 125.621 181.295L129.72 186.267V197.92L126.915 194.517C126.891 184.363 120.691 178.844 115.354 173.363C115.354 182.94 119.834 190.721 125.962 195.357L129.72 199.916V211.206L126.892 207.775C126.481 197.868 120.707 192.619 115.354 187.123C115.354 195.644 120.061 205.837 126.118 208.832L129.72 213.202V224.855H131.312V213.202L134.915 208.831C141.024 207.025 146 194.55 146.185 187.123C140.839 190.318 135.425 198.844 134.705 207.089L131.312 211.206V199.916L135.416 194.937C142.71 192.554 146.185 179.142 146.185 173.363C140.194 176.928 134.624 186.514 134.624 192.856V193.902L131.312 197.919V186.267L135.444 181.255C140.893 179.736 147.52 165.975 145.543 159.603C142.482 163.684 134.624 170.843 134.624 177.95V180.254L131.312 184.271V171.954L134.702 167.841C143.019 163.428 144.939 153.61 146.108 145.761L144.258 146.99C140.352 152.198 134.651 157.918 134.037 166.652L131.312 169.957V158.25L135.497 153.173C143.019 151.623 144.891 137.738 146.185 132.657L145.543 132.084C143.544 134.748 141.167 136.212 138.73 139.762C137.683 141.285 134.624 148.591 134.624 150.43V152.236L131.312 156.254V144.161L135.62 138.934C144.353 133.183 146.442 118.61 146.108 118.241L144.258 119.471C141.394 123.289 134.624 130.166 134.624 136.671V138.147L131.312 142.165V130.924L135.006 126.442C142.732 122.482 143.879 113.914 145.543 106.857V105.711C140.43 106.93 134.745 118.677 134.052 125.604L131.312 128.927V116.984L135.159 112.317C140.315 109.493 145.543 101.119 145.543 95.3914V91.9514C140.117 93.245 135.378 103.451 134.706 110.871L131.312 114.988V108.706H131.434L131.412 108.005C131.412 105.715 133.982 101.457 133.982 95.9648V94.2445C133.982 92.3126 131.523 85.327 130.77 83.9248C129.69 85.3129 126.916 92.9654 126.916 95.3914V97.6847C126.916 100.363 129.025 104.705 129.718 108.706H129.72V114.988L126.587 111.187C124.815 103.594 122.944 95.7686 115.354 90.8051C116.574 98.4299 117.657 107.236 125.467 111.825L129.72 116.984V128.928L126.897 125.502ZM212.1 255.488H216.169L214.307 245.247L212.1 255.488ZM217.053 260.351H211.052L210.199 264.31H202.042H201.614H192.694L187.887 254.723H187.772V264.31H178.554V238.409H188.565C191.727 238.409 193.852 238.502 194.924 238.682C195.996 238.861 196.933 239.273 197.726 239.916C198.521 240.553 199.165 241.422 199.647 242.528C200.129 243.629 200.373 244.799 200.373 246.033C200.373 251.336 196.907 252.563 195.657 253.086L201.757 263.808L208.99 238.409H219.213L226.21 264.31H217.773L217.053 260.351ZM96.3152 255.488H100.384L98.5221 245.247L96.3152 255.488ZM101.268 260.351H95.2673L94.4142 264.31H85.829L93.2057 238.409H103.429L110.425 264.31H101.988L101.268 260.351ZM60.4975 257.81H67.9871V264.31H50.8723V238.409H67.9871V243.984H60.4975V248.118H67.1709V253.767H60.4975V257.81ZM74.8942 254.161V238.409H84.0148V253.668C84.0148 259.089 83.4147 264.639 75.5952 264.602C73.7017 264.593 71.1409 264.32 69.6599 263.513L69.6436 258.303C70.1054 258.436 71.1544 258.598 71.8804 258.598C72.8646 258.598 73.5723 258.421 73.9576 258.245C74.3455 258.068 74.592 257.699 74.711 257.138C74.8291 256.581 74.8942 255.586 74.8942 254.161V254.161ZM121.278 253.652V264.31H112.446V238.409H121.278V247.898H125.748V238.409H134.339V264.31H125.748V253.652H121.278ZM151.195 264.31H142.215V244.094H136.295V238.409H156.63V244.094H151.195V264.31ZM168.071 258.143H175.837V264.31H159.128V238.409H175.837V244.206H168.071V248.118H174.836V253.471H168.071V258.143ZM187.928 243.739H187.772V249.861H188.01C192.942 249.861 193.153 244.08 187.928 243.739V243.739ZM163.353 47.579V20.2357H168.395C176.394 20.2357 179.429 26.6866 179.429 33.774C179.429 39.3109 175.857 47.579 168.909 47.579H163.353ZM168.996 39.8496C170.77 39.904 172.056 39.2889 172.852 38.0051C174.151 35.2295 174.301 31.4858 172.835 29.2191C171.909 27.9075 170.588 27.4658 168.996 27.6195V39.8496ZM215.137 47.579H214.891L214.343 44.2068H209.271L208.723 47.579H207.882H203.183L209.014 20.2357H215.137L221.039 47.579H215.137ZM213.415 38.4907L211.807 28.589L210.199 38.4907H213.415ZM156.404 47.579H156.157L155.609 44.2068H150.537L149.989 47.579H149.148H144.449L150.28 20.2357H156.404L162.306 47.579H156.404ZM154.681 38.4907L153.073 28.589L151.465 38.4907H154.681ZM121.368 20.2357V30.2737L124.698 20.2357H131.328L126.88 33.6465L131.501 47.579H124.871L121.368 37.0195V47.579H115.58V20.2357H121.368ZM90.8689 47.579H90.6222L90.0745 44.2068H85.0021L84.4543 47.579H83.613H78.9142L84.7453 20.2357H90.8689L96.7708 47.579H90.8689ZM89.1463 38.4907L87.5384 28.589L85.9303 38.4907H89.1463ZM57.0245 38.6047V47.579H51.1508V20.2357H58.1217C60.1268 20.2357 61.6569 20.5685 62.7025 21.234C63.7513 21.9016 64.5757 22.9297 65.1888 24.3039C65.802 25.6782 66.1088 27.2168 66.1088 28.9262C66.1088 31.5313 65.481 33.9094 64.2311 35.5092C63.7128 36.1729 63.1229 36.6986 62.4616 37.0876L67.0069 47.579H60.9125L57.0245 38.6047ZM56.9396 33.3236H57.7867C59.4945 33.3236 60.3354 31.8802 60.3354 30.0613C60.3354 28.3521 59.5552 27.1841 57.9802 27.1841H56.9396V33.3236ZM44.6365 47.579H44.3898L43.8421 44.2068H38.7696L38.2219 47.579H37.3806H32.6818L38.5129 20.2357H44.6365L50.5384 47.579H44.6365ZM42.9139 38.4907L41.306 28.589L39.6979 38.4907H42.9139ZM24.8019 38.9254V47.579H18.9282V20.2357H25.8991C27.9042 20.2357 29.4343 20.5685 30.4799 21.234C31.5287 21.9016 32.3531 22.9297 32.9662 24.3039C33.5794 25.6782 33.8863 27.2168 33.8863 28.9262C33.8863 31.5313 33.2584 34.9187 32.0085 36.5185C30.7536 38.1252 29.0785 38.9254 26.9888 38.9254H24.8019ZM24.717 33.3236H25.5642C27.272 33.3236 28.1128 31.8802 28.1128 30.0613C28.1128 28.3521 27.3326 27.1841 25.7576 27.1841H24.717V33.3236ZM76.2809 28.8095V47.579H70.7941V28.8095H66.8832V20.2357H80.1918V28.8095H76.2809ZM103.934 20.2357V47.579H98.1451V20.2357H103.934ZM143.47 41.0492V47.579H132.163V20.2357H143.47V26.5466H138.479V30.5124H142.862V36.5843H138.479V41.0492H143.47ZM188.003 20.2357V47.579H182.214V20.2357H188.003ZM202.852 39.6261V47.579H191.263V20.2357H197.051V39.6261H202.852Z" fill="#FFCB00"/>
</svg>
